# AST/ASF file generated using VICON BodyLanguage
# -----------------------------------------------
:version 1.10
:name VICON
:units
  mass 1.0
  length 0.45
  angle deg
:documentation
   .ast/.asf automatically generated from VICON data using
   VICON BodyBuilder and BodyLanguage model FoxedUp or BRILLIANT.MOD
:root
   order TX TY TZ RX RY RZ
   axis XYZ
   position 0 0 0  
   orientation 0 0 0 
:bonedata
  begin
     id 1 
     name lhipjoint
     direction 0.575328 -0.747301 0.332475 
     length 2.40933 
     axis 0 0 0  XYZ
  end
  begin
     id 2 
     name lfemur
     direction 0.34202 -0.939693 0  
     length 7.31453  
     axis 0 0 20  XYZ
    dof rx ry rz
    limits (-160.0 20.0)
           (-70.0 70.0)
           (-60.0 70.0)
  end
  begin
     id 3 
     name ltibia
     direction 0.34202 -0.939693 0   
     length 7.82185   
     axis 0 0 20   XYZ
    dof rx
    limits (-10.0 170.0)
  end
  begin
     id 4 
     name lfoot
     direction 0.0795993 -0.218697 0.972541   
     length 2.19173   
     axis -90 7.62852e-016 20   XYZ
    dof rx rz
    limits (-45.0 90.0)
           (-70.0 20.0)
  end
  begin
     id 5 
     name ltoes
     direction 1.53537e-011 -4.21894e-011 1   
     length 1.10023   
     axis -90 7.62852e-016 20   XYZ
    dof rx
    limits (-90.0 20.0)
  end
  begin
     id 6 
     name rhipjoint
     direction -0.513884 -0.783789 0.348708   
     length 2.29716  
     axis 0 0 0  XYZ 
  end
  begin
     id 7 
     name rfemur
     direction -0.34202 -0.939693 0   
     length 7.59573   
     axis 0 0 -20   XYZ
    dof rx ry rz
    limits (-160.0 20.0)
           (-70.0 70.0)
           (-70.0 60.0)
  end
  begin
     id 8 
     name rtibia
     direction -0.34202 -0.939693 0   
     length 7.66402   
     axis 0 0 -20   XYZ
    dof rx
    limits (-10.0 170.0)
 end
 begin
     id 9 
     name rfoot
     direction -0.137793 -0.378584 0.915253   
     length 2.27056  
     axis -90 -7.62852e-016 -20   XYZ
    dof rx rz
    limits (-45.0 90.0)
           (-20.0 70.0)
  end
  begin
     id 10 
     name rtoes
     direction -1.53493e-011 -4.22159e-011 1   
     length 1.11766   
     axis -90 -7.62852e-016 -20   XYZ
    dof rx
    limits (-90.0 20.0)
  end
  begin
     id 11 
     name lowerback
     direction -0.00732775 0.998356 -0.05685   
     length 2.16513   
     axis 0 0 0   XYZ
    dof rx ry rz
    limits (-20.0 45.0)
           (-30.0 30.0)
           (-30.0 30.0)
  end
  begin
     id 12 
     name upperback
     direction 0.0218081 0.999627 -0.0164647   
     length 2.16755   
     axis 0 0 0   XYZ
    dof rx ry rz
    limits (-20.0 45.0)
           (-30.0 30.0)
           (-30.0 30.0)
  end
  begin
     id 13 
     name thorax
     direction 0.02365 0.999661 0.0108914   
     length 2.16932   
     axis 0 0 0   XYZ
    dof rx ry rz
    limits (-20.0 45.0)
           (-30.0 30.0)
           (-30.0 30.0)
  end
  begin
     id 14 
     name lowerneck
     direction -0.0523929 0.978385 0.200044   
     length 1.63877   
     axis 0 0 0   XYZ
    dof rx ry rz
    limits (-20.0 45.0)
           (-30.0 30.0)
           (-30.0 30.0)
  end
  begin
     id 15 
     name upperneck
     direction 0.0448674 0.981321 -0.187074   
     length 1.69014   
     axis 0 0 0   XYZ
    dof rx ry rz
    limits (-20.0 45.0)
           (-30.0 30.0)
           (-30.0 30.0)
  end
  begin
     id 16
     name head
     direction 0.0199089 0.996118 -0.0857429  
     length 1.70094  
     axis 0 0 0   XYZ
    dof rx ry rz
    limits (-20.0 45.0)
           (-30.0 30.0)
           (-30.0 30.0)
  end
  begin
     id 17 
     name lclavicle
     direction 0.940366 0.30191 -0.156722  
     length 3.37521  
     axis 0 0 0   XYZ
    dof ry rz
    limits (-20.0 10.0)
           (0.0 20.0)
  end
  begin
     id 18 
     name lhumerus
     direction 1 -4.4897e-011 -1.7911e-027   
     length 5.25287   
     axis 180 -30 -90   XYZ
    dof rx ry rz
    limits (-60.0 90.0)
           (-90.0 90.0)
           (-90.0 90.0)
  end
  begin
     id 19
     name lradius
     direction 1 -4.48951e-011 1.04424e-027   
     length 3.51014   
     axis 180 -30 -90   XYZ
    dof rx
    limits (-10.0 170.0)
  end
  begin
     id 20
     name lwrist
     direction 1 -4.48997e-011 -9.5942e-028   
     length 1.75507   
     axis 8.48502e-016 90 90   XYZ
    dof ry
    limits (-180.0 0.0)
 end
  begin
     id 21 
     name lhand
     direction 1 -4.48831e-011 -1.90777e-027   
     length 0.706179   
     axis 1.22306e-015 90 90   XYZ
    dof rx rz
    limits (-90.0 90.0)
           (-45.0 45.0)
  end
  begin
     id 22 
     name lfingers
     direction 1 -4.49108e-011 -3.85244e-027   
     length 0.569339   
     axis 2.44611e-015 90 90   XYZ
    dof rx
    limits (0.0 90.0)
  end
  begin
     id 23
     name lthumb
     direction 0.707107 -6.34953e-011 0.707107   
     length 0.817461   
     axis -90 45 -1.62303e-014   XYZ
    dof rx rz
    limits (-45.0 45.0)
           (-45.0 45.0)
  end
  begin
     id 24 
     name rclavicle
     direction -0.905329 0.382405 -0.184787   
     length 3.30787  
     axis 0 0 0   XYZ 
    dof ry rz
    limits (-10.0 20.0)
           (-20.0 0.0)
  end
  begin
     id 25 
     name rhumerus
     direction -1 -4.48953e-011 -9.15316e-029  
     length 5.28721   
     axis 180 30 90   XYZ
    dof rx ry rz
    limits (-90.0 60.0)
           (-90.0 90.0)
           (-90.0 90.0)
  end
  begin
     id 26 
     name rradius
     direction -1 -4.48987e-011 9.37824e-028   
     length 3.50544   
     axis 180 30 90   XYZ
    dof rx
    limits (-10.0 170.0)
  end
  begin
     id 27 
     name rwrist
     direction -1 -4.48967e-011 -9.58414e-028   
     length 1.75272   
     axis 8.48502e-016 -90 -90   XYZ
    dof ry
    limits (-180.0 0.0)
  end
  begin
     id 28
     name rhand
     direction -1 -4.48904e-011 -1.91266e-027   
     length 0.884996   
     axis 1.22306e-015 -90 -90   XYZ
    dof rx rz
    limits (-90.0 90.0)
           (-45.0 45.0)
  end
  begin
     id 29
     name rfingers
     direction -1 -4.4909e-011 -3.85015e-027   
     length 0.713507   
     axis 2.44611e-015 -90 -90   XYZ
    dof rx
    limits (0.0 90.0)
  end
  begin
     id 30
     name rthumb
     direction -0.707107 -6.34853e-011 0.707107   
     length 1.02446   
     axis -90 -45 1.62303e-014   XYZ
    dof rx rz
    limits (-45.0 45.0)
           (-45.0 45.0)
  end
:hierarchy
  begin
    root lhipjoint rhipjoint lowerback
    lhipjoint lfemur
    lfemur ltibia
    ltibia lfoot
    lfoot ltoes
    rhipjoint rfemur
    rfemur rtibia
    rtibia rfoot
    rfoot rtoes
    lowerback upperback
    upperback thorax
    thorax lowerneck lclavicle rclavicle
    lowerneck upperneck
    upperneck head
    lclavicle lhumerus
    lhumerus lradius
    lradius lwrist
    lwrist lhand lthumb
    lhand lfingers
    rclavicle rhumerus
    rhumerus rradius
    rradius rwrist
    rwrist rhand rthumb
    rhand rfingers
  end

#!OML:ASF F:\twosubjects\two\Thursday\Session 1\justin.ASF
:FULLY-SPECIFIED
:DEGREES
145
root 8.97582 18.018 -0.350395 3.87232 -21.6718 -2.76194
lowerback 6.0887 -0.158607 -0.578172
upperback 2.99919 -0.233302 4.26448
thorax -0.299943 -0.163924 4.74973
lowerneck -22.6977 -0.704699 -7.01905
upperneck 23.3012 1.28036 0.783105
head 11.3068 0.0272312 1.6551
rclavicle 9.93923e-015 1.35174e-014
rhumerus -12.6679 17.5778 -47.2704
rradius 117.191
rwrist 36.9809
rhand -39.2501 63.3057
rfingers 7.12502
rthumb -12.2448 33.6841
lclavicle 9.93923e-015 1.35174e-014
lhumerus -33.2573 6.19198 80.0011
lradius 45.7608
lwrist -12.7242
lhand -2.77984 31.0077
lfingers 7.12502
lthumb 22.9252 59.6647
rfemur -11.2153 2.10589 22.2746
rtibia 31.4279
rfoot -22.1902 -6.16579
rtoes -15.9309
lfemur -24.2459 12.2593 -7.70573
ltibia 61.6198
lfoot -2.67844 -11.3237
ltoes -17.0883
146
root 8.96862 18.0243 -0.265223 3.9196 -21.6104 -2.90463
lowerback 5.99303 -0.070415 -0.458335
upperback 2.98931 -0.110649 4.21888
thorax -0.268347 -0.100927 4.62526
lowerneck -23.0819 -0.809041 -6.96991
upperneck 23.4652 1.15181 0.793087
head 11.4477 -0.0303218 1.63391
rclavicle -4.8901e-014 9.54166e-015
rhumerus -12.6767 17.5358 -47.6429
rradius 117.321
rwrist 36.5336
rhand -38.5976 62.6452
rfingers 7.12502
rthumb -11.6156 32.9871
lclavicle -4.8901e-014 9.54166e-015
lhumerus -33.1115 6.73298 79.7748
lradius 44.6998
lwrist -12.8125
lhand -2.66246 31.519
lfingers 7.12502
lthumb 23.0379 60.162
rfemur -10.679 1.96559 22.345
rtibia 30.9901
rfoot -22.2481 -6.0615
rtoes -16.9326
lfemur -24.2263 12.2176 -7.27495
ltibia 60.7093
lfoot -3.50232 -9.75706
ltoes -17.2892
147
root 8.96546 18.033 -0.180044 4.08277 -21.5184 -3.26074
lowerback 5.93485 0.024642 0.00676443
upperback 2.91483 0.0418906 4.18559
thorax -0.326114 -0.0180874 4.31611
lowerneck -23.336 -0.914208 -6.7523
upperneck 23.4515 0.99911 0.610773
head 11.5001 -0.103304 1.50651
rclavicle 2.14687e-014 -1.03368e-014
rhumerus -12.6722 17.5038 -48.1687
rradius 117.297
rwrist 36.345
rhand -38.2928 61.8242
rfingers 7.12502
rthumb -11.3217 32.1498
lclavicle 2.14687e-014 -1.03368e-014
lhumerus -33.0378 7.18471 79.4856
lradius 43.6837
lwrist -12.7805
lhand -2.48014 31.9915
lfingers 7.12502
lthumb 23.2128 60.6126
rfemur -10.1958 1.98136 22.6488
rtibia 30.5399
rfoot -22.3683 -6.05494
rtoes -16.1196
lfemur -24.2723 12.169 -6.60002
ltibia 59.6832
lfoot -4.3599 -8.56441
ltoes -17.3216
148
root 8.95976 18.037 -0.103227 4.42454 -21.2394 -3.71855
lowerback 5.57737 0.0748624 0.629903
upperback 2.90815 0.130471 4.1638
thorax -0.139999 0.0311401 3.93318
lowerneck -23.3697 -1.01877 -6.72573
upperneck 23.2362 0.830553 0.653658
head 11.431 -0.164358 1.48867
rclavicle -5.12864e-014 1.74931e-014
rhumerus -12.3821 17.2268 -48.6824
rradius 117.052
rwrist 36.2234
rhand -38.1869 60.8492
rfingers 7.12502
rthumb -11.2195 31.1692
lclavicle -5.12864e-014 1.74931e-014
lhumerus -32.6828 7.53782 79.2112
lradius 42.5207
lwrist -12.6821
lhand -3.67332 32.3473
lfingers 7.12502
lthumb 22.0676 61.1081
rfemur -9.86718 1.96474 23.0786
rtibia 30.0583
rfoot -22.4646 -6.25961
rtoes -15.7159
lfemur -24.5476 11.9345 -5.80024
ltibia 58.5544
lfoot -5.26951 -7.76198
ltoes -17.0944
149
root 8.95556 18.0383 -0.0278495 4.62618 -20.9365 -3.87188
lowerback 5.81778 0.00205746 0.547128
upperback 2.51063 0.0555882 4.29199
thorax -0.678656 -5.37822e-006 4.11956
lowerneck -22.9067 -0.861445 -6.53304
upperneck 23.0992 1.03945 0.291907
head 11.2877 -0.0964191 1.35426
rclavicle -5.56597e-015 6.2816e-014
rhumerus -12.2765 17.6092 -49.0251
rradius 117.02
rwrist 35.5076
rhand -37.7337 60.3048
rfingers 7.12502
rthumb -10.7824 30.6015
lclavicle -5.56597e-015 6.2816e-014
lhumerus -33.0209 8.12646 78.927
lradius 41.288
lwrist -12.4255
lhand -5.90002 32.411
lfingers 7.12502
lthumb 19.9285 61.4091
rfemur -9.48844 1.81389 23.1736
rtibia 29.5427
rfoot -22.5511 -6.43668
rtoes -16.212
lfemur -24.7739 11.6952 -5.38273
ltibia 57.3474
lfoot -5.98063 -6.91233
ltoes -16.4097
150
root 8.95647 18.0446 0.0600094 4.58998 -20.8342 -3.55631
lowerback 5.78966 -0.0583999 0.201533
upperback 2.39071 -0.0391978 4.12964
thorax -0.78018 -0.0457494 4.15225
lowerneck -22.9085 -0.701836 -6.22898
upperneck 23.0269 1.19116 0.154257
head 11.2566 -0.01663 1.27735
rclavicle -7.59357e-014 -1.59028e-015
rhumerus -12.048 17.9527 -49.7677
rradius 116.963
rwrist 34.7898
rhand -37.4075 60.0301
rfingers 7.12502
rthumb -10.4677 30.3107
lclavicle -7.59357e-014 -1.59028e-015
lhumerus -32.9657 8.66957 78.3752
lradius 40.0836
lwrist -11.9612
lhand -6.38893 32.8209
lfingers 7.12502
lthumb 19.4584 61.8672
rfemur -9.01749 1.42974 22.7001
rtibia 29.041
rfoot -22.5811 -6.18753
rtoes -16.9488
lfemur -24.728 11.4743 -5.5167
ltibia 56.001
lfoot -5.89771 -5.82514
ltoes -13.7209
151
root 8.9583 18.05 0.150851 4.64422 -20.6022 -3.48949
lowerback 5.61858 -0.159603 0.160216
upperback 2.32382 -0.178161 4.00768
thorax -0.744463 -0.114071 4.05606
lowerneck -22.9964 -0.703867 -6.37921
upperneck 23.0204 1.11979 0.62351
head 11.2662 0.000236425 1.46395
rclavicle -1.49089e-014 1.66979e-014
rhumerus -11.7913 18.162 -50.6063
rradius 116.938
rwrist 34.3173
rhand -37.2726 59.5763
rfingers 7.12502
rthumb -10.3376 29.8503
lclavicle -1.49089e-014 1.66979e-014
lhumerus -32.9524 9.57186 77.7547
lradius 39.0163
lwrist -12.0377
lhand -5.23104 33.2871
lfingers 7.12502
lthumb 20.5714 62.2171
rfemur -8.59405 0.978139 22.4883
rtibia 28.675
rfoot -22.6412 -5.9763
rtoes -17.3881
lfemur -24.7188 11.0788 -5.34211
ltibia 54.5982
lfoot -5.42775 -4.86624
ltoes -10.1639
152
root 8.95938 18.0522 0.233543 4.84048 -20.3094 -3.52494
lowerback 5.49596 -0.198875 0.15167
upperback 2.09969 -0.224686 3.97088
thorax -0.903993 -0.133004 4.02534
lowerneck -22.8984 -0.788146 -6.40007
upperneck 23.0707 0.992222 0.657497
head 11.2714 -0.0559259 1.45956
rclavicle 2.95195e-014 -2.54444e-014
rhumerus -11.6771 18.2391 -51.1623
rradius 117.16
rwrist 33.489
rhand -36.7474 58.3686
rfingers 7.12502
rthumb -9.83099 28.6181
lclavicle 2.95195e-014 -2.54444e-014
lhumerus -33.3575 10.6646 77.1974
lradius 38.3168
lwrist -12.5896
lhand -4.17808 33.1998
lfingers 7.12502
lthumb 21.5829 62.0171
rfemur -8.31364 0.964077 22.4499
rtibia 28.3668
rfoot -22.6143 -6.22447
rtoes -17.4123
lfemur -24.874 10.6982 -5.07914
ltibia 53.1194
lfoot -5.72041 -4.05637
ltoes -9.42229
153
root 8.9619 18.0367 0.312851 5.04123 -20.2216 -3.4817
lowerback 5.48713 -0.100333 0.116466
upperback 1.81528 -0.084906 3.85127
thorax -1.20192 -0.0565939 3.91303
lowerneck -22.7575 -0.781237 -6.08408
upperneck 23.1401 0.960263 0.362261
head 11.276 -0.082536 1.29371
rclavicle -1.2424e-014 1.51076e-014
rhumerus -11.7703 18.2972 -51.8555
rradius 117.323
rwrist 32.4482
rhand -35.7526 56.7507
rfingers 7.12502
rthumb -8.87104 26.9572
lclavicle -1.2424e-014 1.51076e-014
lhumerus -33.7116 11.266 76.7132
lradius 37.7144
lwrist -12.8664
lhand -3.73842 33.8666
lfingers 7.12502
lthumb 22.0051 62.6348
rfemur -8.08583 1.84498 22.4065
rtibia 28.1181
rfoot -22.5843 -7.21444
rtoes -17.974
lfemur -24.9975 10.6106 -4.92
ltibia 51.6604
lfoot -6.80515 -3.1872
ltoes -11.8549
154
root 8.96307 18.0335 0.398696 5.13764 -20.1784 -3.5096
lowerback 5.4025 0.00436718 0.150679
upperback 1.80625 0.0536591 3.71368
thorax -1.17335 0.0132928 3.74094
lowerneck -22.8603 -0.770101 -6.01044
upperneck 22.9689 0.897305 0.573298
head 11.2301 -0.0714741 1.34826
rclavicle -5.64548e-014 0
rhumerus -11.5288 18.1245 -52.7016
rradius 117.519
rwrist 31.7252
rhand -34.5895 55.0318
rfingers 7.12502
rthumb -7.74862 25.1938
lclavicle -5.64548e-014 0
lhumerus -33.5072 11.8487 76.2415
lradius 36.9034
lwrist -13.2492
lhand -2.5907 34.9591
lfingers 7.12502
lthumb 23.1067 63.5935
rfemur -7.75305 1.88818 22.3242
rtibia 27.7956
rfoot -22.7726 -7.25228
rtoes -17.7885
lfemur -24.9465 10.749 -4.68806
ltibia 50.2254
lfoot -7.65438 -2.24806
ltoes -14.6046
155
root 8.96472 18.0296 0.482077 5.20151 -20.0677 -3.65533
lowerback 5.29053 0.0349248 0.13087
upperback 1.87632 0.0885145 3.72657
thorax -1.04104 0.0289511 3.76269
lowerneck -22.8544 -0.856053 -6.40259
upperneck 22.5706 0.756326 1.14082
head 11.0785 -0.0846518 1.5951
rclavicle 1.38155e-014 0
rhumerus -11.0526 18.144 -53.3697
rradius 117.999
rwrist 30.7677
rhand -33.3759 53.1207
rfingers 7.12502
rthumb -6.57713 23.2429
lclavicle 1.38155e-014 0
lhumerus -33.329 12.71 75.821
lradius 36.0479
lwrist -13.7922
lhand -0.686188 35.4679
lfingers 7.12502
lthumb 24.933 63.8615
rfemur -7.26195 1.90172 22.3723
rtibia 27.266
rfoot -22.7299 -7.28295
rtoes -17.0117
lfemur -24.8617 10.8112 -4.29825
ltibia 48.7939
lfoot -8.21582 -1.385
ltoes -15.4696
156
root 8.96765 18.0278 0.562376 5.37257 -19.9038 -4.0082
lowerback 5.36852 0.0201694 0.319575
upperback 1.7018 0.0876683 3.79557
thorax -1.26399 0.0318619 3.72854
lowerneck -22.3717 -0.853476 -6.60498
upperneck 22.1373 0.702959 1.45445
head 10.8258 -0.0746574 1.72769
rclavicle -1.00386e-014 3.97569e-015
rhumerus -11.1299 18.8597 -54.4055
rradius 118.65
rwrist 29.8833
rhand -33.8948 52.2001
rfingers 7.12502
rthumb -7.078 22.3384
lclavicle -1.00386e-014 3.97569e-015
lhumerus -33.5316 13.1253 75.4442
lradius 35.102
lwrist -13.6622
lhand -0.193581 35.4832
lfingers 7.12502
lthumb 25.4049 63.8105
rfemur -6.66717 1.84217 22.6995
rtibia 26.6615
rfoot -22.6166 -7.64824
rtoes -18.0269
lfemur -24.8388 10.7018 -3.63424
ltibia 47.386
lfoot -8.65191 -0.844505
ltoes -12.4872
157
root 8.96866 18.0575 0.65061 5.62685 -19.6485 -4.44879
lowerback 5.39474 0.0129459 0.708732
upperback 1.49688 0.107632 3.81025
thorax -1.49028 0.0446644 3.52307
lowerneck -21.9581 -0.757357 -6.53448
upperneck 22.011 0.728818 1.64026
head 10.6985 -0.0299113 1.7841
rclavicle -4.02539e-014 -1.82882e-014
rhumerus -11.4003 18.8106 -55.5902
rradius 118.971
rwrist 29.3826
rhand -32.8912 49.7996
rfingers 7.12502
rthumb -6.10913 19.9077
lclavicle -4.02539e-014 -1.82882e-014
lhumerus -33.8109 13.5038 74.91
lradius 34.3722
lwrist -13.6399
lhand -0.790221 35.2028
lfingers 7.12502
lthumb 24.8333 63.6102
rfemur -6.33559 1.53496 23.0223
rtibia 26.0555
rfoot -22.5613 -7.39791
rtoes -17.7496
lfemur -24.7961 10.4571 -2.89825
ltibia 45.8426
lfoot -8.63069 -0.38508
ltoes -9.57859
158
root 8.98058 18.058 0.740849 5.77983 -19.1926 -4.46886
lowerback 5.26769 -0.0272315 0.7906
upperback 1.38621 0.058574 3.73806
thorax -1.5304 0.0213853 3.40472
lowerneck -21.6428 -0.815284 -6.97418
upperneck 21.8346 0.587555 2.33749
head 10.5751 -0.0392343 2.08359
rclavicle -4.58199e-014 2.54444e-014
rhumerus -11.5972 18.8536 -56.6243
rradius 119.504
rwrist 28.9625
rhand -32.7874 48.4618
rfingers 7.12502
rthumb -6.00893 18.567
lclavicle -4.58199e-014 2.54444e-014
lhumerus -33.911 14.2539 74.3231
lradius 33.7773
lwrist -14.2954
lhand -1.20308 35.2305
lfingers 7.12502
lthumb 24.4375 63.6918
rfemur -5.72355 1.80624 22.9622
rtibia 25.6091
rfoot -22.9716 -7.54282
rtoes -16.3675
lfemur -24.8351 9.84142 -2.59532
ltibia 44.1633
lfoot -8.47475 0.183701
ltoes -7.96082
